<svg version="1.0" xmlns="http://www.w3.org/2000/svg"
 fill='currentColor' viewBox="0 0 360.000000 413.000000"
 preserveAspectRatio="xMidYMid meet">

<g transform="translate(0.000000,413.000000) scale(0.100000,-0.100000)"
 stroke="none">
<path d="M2424 3950 c-153 -40 -277 -114 -403 -242 -175 -177 -257 -366 -249
-578 l3 -85 60 3 c159 8 322 82 452 206 189 178 268 347 280 594 l6 122 -39
-1 c-21 0 -71 -8 -110 -19z"/>
<path d="M979 3075 c-200 -37 -351 -116 -499 -265 -154 -155 -238 -310 -291
-539 -26 -112 -37 -412 -20 -562 38 -336 169 -701 365 -1016 163 -264 304
-409 476 -492 73 -35 78 -36 195 -36 108 0 128 3 195 29 400 152 507 159 791
52 253 -96 380 -109 503 -53 209 96 464 384 627 710 56 111 119 257 119 276 0
5 -31 27 -70 50 -241 144 -393 340 -440 571 -66 322 45 617 319 842 48 39 87
74 89 78 4 11 -129 144 -192 189 -117 86 -265 146 -418 171 -98 16 -358 8
-445 -14 -33 -8 -121 -38 -195 -65 -165 -61 -242 -76 -309 -62 -27 6 -112 36
-187 66 -76 30 -171 61 -211 70 -90 19 -297 19 -402 0z"/>
</g>
</svg>
