<svg  viewBox="0 0 200 200" fill="currentColor" xmlns="http://www.w3.org/2000/svg">
<path id="Vector" d="M103.6 9.60965C83.9742 14.9048 67.8089 19.2193 67.7634 19.2193C67.6723 19.2193 67.6268 17.6111 67.6268 15.6892C67.6268 12.5121 67.2169 11.2962 66.5794 12.669C66.4428 12.9436 65.1678 14.7479 63.7107 16.6698L61.0696 20.1999L60.7053 18.474C60.5231 17.4935 60.2955 16.5521 60.2044 16.356C60.1133 16.1207 59.3847 16.8659 58.5651 18.0034C57.7454 19.1016 56.9258 20.0037 56.7436 20.0037C56.607 20.0037 54.9677 16.709 53.1008 12.7475C51.2338 8.74674 49.6856 5.53045 49.5945 5.6089C49.3668 5.80501 41.6712 51.0684 41.6712 52.1274C41.6712 52.5588 41.5346 52.9511 41.398 52.9511C41.2614 52.9511 35.3417 49.3426 28.2381 44.9104C21.1345 40.4782 15.1692 36.8696 14.9416 36.8696C14.7594 36.8696 11.9362 39.1053 8.74866 41.8902L2.96559 46.8715L2.28255 66.2869C0.916467 104.137 -0.0853262 133.554 0.00574584 133.633C0.0512819 133.711 1.18968 131.162 2.6013 128.024L5.10578 122.258L5.42453 128.651C6.83615 157.363 22.5916 172.228 71.2241 190.977C74.0929 192.075 76.5063 192.899 76.5974 192.82C76.6884 192.742 75.1402 184.309 73.1366 174.111C71.133 163.913 69.5393 155.519 69.5848 155.48C69.6303 155.441 78.692 165.521 89.7117 177.876C100.731 190.192 109.793 200.155 109.884 199.998C109.975 199.841 109.292 196.429 108.382 192.389C107.471 188.349 106.788 184.976 106.924 184.897C107.015 184.78 107.698 184.897 108.382 185.133C109.065 185.368 109.748 185.486 109.839 185.368C109.975 185.29 109.429 183.132 108.609 180.622C107.835 178.073 107.289 175.954 107.38 175.837C107.516 175.758 110.157 176.229 113.299 176.935L118.991 178.151L123.363 181.171L127.689 184.231L140.758 181.524L153.826 178.818L158.016 175.405C160.293 173.523 168.671 166.698 176.594 160.226C190.893 148.577 191.029 148.498 191.029 146.89C191.029 145.361 192.304 113.629 192.532 109.511L192.623 107.432L186.339 107.55C182.924 107.628 180.101 107.55 180.101 107.432C180.101 107.275 184.563 102.098 190.073 95.9395L200 84.6825L197.222 72.8371L194.399 60.9918L188.479 53.9316C185.201 50.0486 179.828 43.616 176.458 39.6152C173.134 35.6145 170.311 32.2806 170.265 32.2021C169.992 31.8883 133.927 24.2791 133.426 24.4359C133.153 24.5536 131.286 26.7893 129.328 29.4565C127.37 32.1237 125.685 34.3986 125.594 34.477C125.458 34.6339 104.875 36.046 104.648 35.9283C104.602 35.8891 113.072 31.3 123.454 25.7303C133.836 20.1606 142.26 15.5323 142.215 15.4931C142.124 15.4147 138.845 15.5715 134.929 15.8461C130.967 16.0814 127.734 16.2776 127.734 16.2383C127.734 16.1991 129.328 14.8263 131.286 13.1397L134.792 10.1195L131.423 10.3549L128.008 10.5902L128.873 9.72732C129.374 9.21742 132.015 6.82481 134.747 4.39298C137.525 2.00038 139.665 6.52016e-06 139.574 6.52016e-06C139.437 0.0392295 123.272 4.35376 103.6 9.60965ZM118.582 12.0415L112.935 15.1009L116.305 15.297L119.674 15.4931L114.529 18.6309C108.655 22.2002 108.655 22.2002 116.35 21.6511C118.991 21.455 121.177 21.3373 121.223 21.3766C121.268 21.3766 113.117 25.8088 103.145 31.1823C93.1269 36.5951 84.9305 41.1842 84.9305 41.4587C84.9305 41.8117 85.6135 41.8902 87.5715 41.7333C92.3528 41.3411 124.774 39.3407 124.911 39.4191C125.002 39.4584 116.168 45.2241 105.331 52.1666L85.6135 64.8356L85.7956 68.4049C85.8867 70.3661 86.0233 72.0135 86.0689 72.0919C86.1599 72.1704 93.0359 71.1506 101.369 69.8562C109.702 68.5618 116.624 67.542 116.669 67.6205C116.76 67.6989 114.483 68.9541 111.615 70.4445C108.746 71.935 106.469 73.1902 106.515 73.2686C106.606 73.3078 108.427 73.0333 110.613 72.6018C112.753 72.2096 114.529 71.935 114.529 72.0135C114.529 72.0919 113.39 72.8371 111.979 73.6216C110.567 74.4453 109.657 75.1513 109.93 75.2297C110.203 75.3082 111.888 75.1905 113.664 74.916C115.485 74.6806 116.988 74.563 117.033 74.6022C117.17 74.7591 73.4098 103.157 73.2732 103.039C73.0455 102.882 70.2223 23.5338 70.4045 23.4161C70.7687 23.1808 122.953 9.09975 123.591 9.06052C123.955 9.06052 121.724 10.3941 118.582 12.0415ZM53.5561 31.9668C53.7383 32.0844 54.5124 31.3 55.332 30.2017C56.1517 29.1427 56.9713 28.2406 57.1535 28.2406C57.3356 28.2406 57.6544 29.2604 57.8365 30.4763L58.1553 32.712L60.2499 29.8487C61.4339 28.2798 62.4356 27.1423 62.4812 27.3385C62.6633 27.8876 64.9857 95.3119 64.8035 95.7042C64.7125 95.9003 55.3776 89.8992 44.0846 82.3683C32.7462 74.7983 23.3202 68.6403 23.0925 68.6403C22.8648 68.6403 19.0398 77.034 14.5773 87.2712C10.1147 97.5476 6.42633 105.863 6.38079 105.824C6.33525 105.745 6.69954 92.9586 7.24597 77.3478L8.20223 49.0288L11.8907 45.8517L15.5791 42.6746L28.2836 50.6369C35.2506 54.9907 41.99 59.1483 43.1739 59.9328C44.3578 60.678 45.4052 61.2271 45.4962 61.1487C45.6329 61.031 50.824 25.142 51.2793 21.3766C51.3249 21.1412 51.7802 23.4161 52.3267 26.3579C52.8275 29.2996 53.4195 31.8099 53.5561 31.9668ZM152.005 32.9866L166.941 36.2029L178.143 49.5387L189.345 62.8745L191.804 73.1902L194.308 83.5058L183.516 95.7042C177.596 102.372 172.496 107.863 172.223 107.863C171.904 107.863 167.487 106.608 162.387 105.039L153.098 102.176L141.85 89.5069L130.558 76.7987L124.41 64.8356L118.263 52.9118L126.96 41.1842C133.108 32.9081 135.885 29.4957 136.386 29.6134C136.75 29.6918 143.809 31.2215 152.005 32.9866ZM119.766 97.2731L132.971 106.412L130.74 106.177C129.009 105.941 128.645 106.02 128.964 106.412C129.191 106.647 130.967 108.609 132.925 110.727C136.842 115.002 136.933 114.884 130.831 113.119C129.1 112.609 127.734 112.374 127.734 112.531C127.734 112.688 128.463 113.433 129.374 114.178C131.15 115.629 133.244 117.983 132.379 117.512C132.06 117.355 125.549 115.276 117.853 112.923C105.923 109.236 103.691 108.687 102.781 109.04C101.961 109.354 101.733 109.668 101.915 110.334C102.006 110.805 106.332 117.12 111.478 124.337C116.624 131.554 120.813 137.477 120.767 137.516C120.722 137.516 114.802 137.32 107.607 137.045C85.659 136.222 85.5224 136.222 84.6117 137.006C83.6099 137.83 83.109 136.928 95.2216 156.186C100.322 164.305 104.511 171.012 104.511 171.13C104.511 171.208 103.099 171.012 101.323 170.699C99.5931 170.346 98.0448 170.189 97.9082 170.306C97.7261 170.424 98.3636 172.032 99.2288 173.915C100.094 175.758 100.731 177.288 100.64 177.288C100.549 177.288 99.4109 176.504 98.0904 175.523C96.7698 174.542 95.6314 173.836 95.5403 173.915C95.4493 173.993 96.4966 176.072 97.9082 178.504C99.3654 180.975 100.322 182.779 100.048 182.583C99.1377 181.759 63.8473 141.399 63.6651 140.928C63.3464 140.222 105.467 87.4281 106.059 87.8203C106.332 87.9772 112.525 92.2525 119.766 97.2731ZM44.8587 95.0766C48.4561 95.7434 51.6891 96.9201 54.5124 98.5674C56.607 99.7834 56.7892 100.058 63.0732 111.903C66.625 118.571 69.4482 124.062 69.3571 124.141C69.2661 124.18 63.9839 121.513 57.6088 118.218C51.2338 114.884 45.0409 111.903 43.8114 111.55C40.3051 110.53 35.7515 110.923 32.0176 112.492C25.5059 115.237 22.5916 120.415 23.1381 128.259C23.7756 138.104 32.0176 148.891 43.356 154.852C45.815 156.108 51.7347 158.539 51.9624 158.383C52.0079 158.304 50.915 154.852 49.5034 150.695L46.9534 143.164L42.5819 143.125C40.2141 143.086 37.1631 142.968 35.8881 142.85L33.5203 142.576L36.7078 140.732C40.3051 138.653 40.2596 138.536 34.8408 138.379L31.881 138.261L36.1158 135.516L40.3507 132.77L37.0265 132.652L33.7024 132.495L45.7695 129.083C52.4177 127.2 57.9276 125.71 58.0187 125.749C58.3374 125.984 69.767 185.133 69.4937 185.133C68.9473 185.133 52.5999 178.112 49.3668 176.504C38.9846 171.365 33.247 167.718 27.0541 162.423C18.3112 154.852 13.6666 147.008 11.5719 136.3C10.7978 132.456 10.7978 118.179 11.5264 114.531C12.3915 110.256 15.2603 105.824 19.5407 102.176C26.8265 95.9395 35.8426 93.4292 44.8587 95.0766ZM186.931 112.649C186.931 112.923 186.612 120.65 186.203 129.828L185.52 146.498L184.062 147.714C183.243 148.381 176.549 153.833 169.172 159.834C161.795 165.835 154.737 171.601 153.462 172.621L151.185 174.503L140.211 176.817L129.191 179.092L123.226 174.582L117.261 170.071V157.716V145.321L130.831 130.181C138.299 121.866 144.81 114.57 145.311 114.021L146.267 113.002L162.387 112.727C171.267 112.609 178.553 112.413 178.644 112.374C178.689 112.335 180.602 112.256 182.833 112.217C185.929 112.139 186.931 112.256 186.931 112.649Z" fill="currentColor"/>
<path id="Vector_2" d="M154.51 51.6959L153.28 53.5786L154.646 55.6182C156.012 57.6186 156.058 57.6578 158.198 57.6578C160.338 57.6578 160.338 57.6578 161.522 55.579L162.706 53.5002L161.112 51.6567C159.655 49.9701 159.336 49.8132 157.651 49.8132C155.83 49.8132 155.648 49.9309 154.51 51.6959Z" fill="currentColor"/>
<path id="Vector_3" d="M138.481 60.4427C136.796 61.5801 137.024 63.0314 138.982 64.0512L140.439 64.7572L142.078 63.7374C142.943 63.149 143.672 62.3646 143.672 62.0116C143.672 60.0504 140.484 59.0698 138.481 60.4427Z" fill="currentColor"/>
<path id="Vector_4" d="M176.777 75.7789C174.819 80.9955 172.906 83.7411 169.627 85.9376C167.578 87.3496 167.396 87.3889 162.296 87.6634C157.925 87.8988 156.741 87.8203 155.238 87.2712C153.189 86.526 153.371 86.7221 157.105 89.0755C159.837 90.8013 159.837 90.8013 164.3 90.9189L168.762 91.0758L171.586 89.4677C173.134 88.6048 175.365 86.9182 176.594 85.7415L178.735 83.5842L179.008 79.3482C179.144 77.034 179.099 74.2099 178.871 73.1117L178.507 71.1505L176.777 75.7789Z" fill="currentColor"/>
<path id="Vector_5" d="M153.735 123.199C152.142 123.356 150.776 123.552 150.73 123.631C150.275 124.102 147.77 128.73 147.77 129.122C147.77 129.397 148.681 130.495 149.774 131.554L151.732 133.515L154.874 132.927L157.97 132.378L159.245 129.75L160.52 127.122L159.291 124.925C158.517 123.631 157.788 122.768 157.333 122.807C156.968 122.846 155.329 123.003 153.735 123.199Z" fill="currentColor"/>
<path id="Vector_6" d="M167.852 136.065C166.531 136.575 166.394 136.81 166.622 137.79C166.759 138.418 166.895 139.242 166.895 139.595C166.895 139.987 167.715 140.615 168.899 141.085L170.902 141.948L172.314 140.654C173.407 139.673 173.726 139.046 173.726 137.79C173.726 136.222 173.726 136.222 171.54 135.829C169.81 135.555 168.99 135.594 167.852 136.065Z" fill="currentColor"/>
<path id="Vector_7" d="M133.836 149.714C130.193 151.048 130.102 151.126 129.009 153.284L127.917 155.519L129.283 159.128L130.649 162.776H134.565H138.481L139.528 164.344L140.53 165.913H143.581C146.268 165.913 147.315 165.678 152.233 163.795C155.329 162.658 157.834 161.599 157.834 161.442C157.697 160.618 152.916 152.97 152.506 152.97C152.233 152.97 150.685 153.401 149.045 153.911C146.541 154.735 145.858 154.813 144.082 154.46C142.215 154.068 141.851 153.793 139.847 151.166C138.617 149.557 137.616 148.263 137.57 148.302C137.57 148.302 135.84 148.93 133.836 149.714Z" fill="currentColor"/>
</svg>
