<svg  fill="currentColor" version="1.0" xmlns="http://www.w3.org/2000/svg"
 viewBox="0 0 200.000000 155.000000"
 preserveAspectRatio="xMidYMid meet">

<g transform="translate(0.000000,155.000000) scale(0.100000,-0.100000)"
 stroke="none">
<path d="M750 827 l0 -713 149 -47 c83 -26 155 -47 160 -47 8 0 11 187 11 604
0 373 4 615 10 631 11 30 31 39 65 31 50 -13 55 -41 55 -331 l0 -266 33 -14
c127 -53 246 -11 296 106 28 64 38 192 22 284 -33 187 -136 281 -406 368 -96
31 -284 83 -367 101 l-28 6 0 -713z"/>
<path d="M400 576 c-277 -101 -330 -124 -366 -163 -35 -38 -31 -70 14 -113 75
-70 274 -115 483 -108 75 3 141 8 148 12 10 6 17 166 7 166 -2 0 -47 -16 -100
-35 -80 -29 -111 -35 -176 -35 -60 0 -82 4 -95 17 -16 16 -16 18 3 33 11 9 99
45 196 79 l176 63 0 89 c0 78 -2 89 -17 88 -10 0 -133 -42 -273 -93z"/>
<path d="M1380 589 c-41 -5 -113 -19 -160 -32 l-85 -22 -3 -84 c-2 -46 -1 -90
2 -96 3 -9 60 7 188 53 170 61 189 66 270 66 94 1 122 -10 102 -41 -10 -16
-46 -30 -401 -157 l-163 -58 0 -89 c0 -52 4 -89 10 -89 15 0 677 238 735 264
61 28 115 79 115 110 0 32 -34 73 -80 96 -65 33 -204 69 -311 80 -112 11 -112
11 -219 -1z"/>
<path d="M1817 142 c-23 -25 -22 -85 1 -105 25 -23 85 -22 105 1 23 25 22 85
-1 105 -25 23 -85 22 -105 -1z m95 -9 c22 -20 23 -61 1 -85 -34 -38 -103 -11
-103 40 0 54 62 81 102 45z"/>
<path d="M1841 88 c1 -24 3 -35 6 -25 5 21 43 23 43 2 0 -8 3 -15 8 -15 4 0 6
18 4 40 -4 37 -7 40 -33 40 -28 0 -29 -2 -28 -42z m49 22 c0 -5 -9 -10 -20
-10 -11 0 -20 5 -20 10 0 6 9 10 20 10 11 0 20 -4 20 -10z"/>
</g>
</svg>
