<?xml version="1.0" standalone="no"?>
<svg version="1.0" xmlns="http://www.w3.org/2000/svg"
 viewBox="0 0 728.000000 178.000000"
 >

<g transform="translate(0.000000,178.000000) scale(0.100000,-0.100000)"
fill="currentColor" stroke="currentColor">
<path d="M475 1760 c-137 -28 -281 -125 -355 -240 -41 -64 -86 -191 -94 -265
-7 -70 6 -198 29 -272 21 -71 96 -180 159 -230 73 -59 148 -91 274 -116 59
-12 113 -26 120 -30 17 -11 15 -44 -4 -51 -9 -3 -148 -6 -310 -6 l-294 0 0
-120 0 -120 338 0 c198 0 352 4 374 10 48 14 132 90 151 137 38 97 29 199 -25
272 -39 54 -115 92 -238 120 -52 13 -114 31 -137 41 -57 25 -134 98 -163 157
-22 42 -25 61 -25 153 0 98 2 109 30 159 36 65 101 124 163 147 41 16 92 18
385 22 l337 3 0 120 0 119 -337 -1 c-186 -1 -356 -5 -378 -9z"/>
<path d="M1600 1747 c-165 -59 -271 -168 -332 -342 l-28 -80 0 -435 c0 -332 3
-447 14 -485 52 -197 227 -365 411 -395 33 -5 216 -10 408 -10 l347 0 0 125 0
124 -367 3 c-358 3 -369 4 -409 25 -56 30 -99 75 -132 137 l-27 51 0 420 c0
406 1 422 21 466 30 63 79 116 138 147 l51 27 363 3 362 3 0 120 0 119 -377 0
c-369 0 -380 -1 -443 -23z"/>
<path d="M2880 1763 c-175 -33 -343 -204 -394 -400 -23 -88 -23 -856 -1 -952
36 -149 147 -291 284 -360 89 -46 148 -51 594 -51 l417 0 0 580 0 580 -370 0
-370 0 0 -120 0 -120 270 0 270 0 0 -336 0 -335 -332 3 c-320 3 -335 4 -374
25 -48 26 -104 86 -136 145 -23 42 -23 48 -26 433 -3 342 -1 398 14 453 23 87
78 156 153 191 l56 26 423 3 422 3 0 120 0 119 -437 -1 c-241 -1 -449 -4 -463
-6z"/>
<path d="M4555 1760 c-54 -14 -82 -28 -119 -61 -45 -39 -68 -83 -112 -209 -18
-52 -73 -210 -124 -350 -161 -450 -400 -1129 -400 -1136 0 -2 54 -3 120 -2
l121 3 30 85 c17 47 63 179 104 295 78 225 179 512 270 770 31 88 69 198 86
245 16 47 39 93 50 103 57 46 127 26 152 -45 9 -24 41 -113 72 -198 31 -85 81
-225 111 -310 30 -85 61 -171 69 -190 15 -35 182 -500 192 -533 5 -17 -12 -18
-368 -16 l-374 2 1 -27 c1 -14 2 -62 3 -106 l1 -80 520 0 c440 0 520 2 520 14
0 8 -22 74 -49 148 -27 73 -83 230 -124 348 -42 118 -121 343 -178 500 -56
157 -107 303 -114 325 -45 140 -99 274 -122 308 -37 53 -88 93 -142 112 -47
16 -145 18 -196 5z"/>
<path d="M502 1455 c-58 -18 -106 -57 -139 -112 -39 -67 -45 -187 -13 -261 40
-92 104 -133 272 -173 103 -24 198 -67 241 -107 15 -15 40 -51 55 -82 23 -47
27 -68 27 -140 0 -76 -4 -93 -33 -152 -34 -70 -72 -107 -152 -149 -45 -24 -48
-24 -403 -27 l-357 -3 0 -124 0 -125 328 0 c370 0 420 6 541 66 83 41 181 131
226 208 89 152 107 363 45 530 -32 84 -113 182 -200 241 -66 45 -89 54 -195
79 -173 40 -170 39 -170 67 l0 24 308 3 307 2 0 125 0 125 -322 -1 c-240 0
-334 -4 -366 -14z"/>
<path d="M1708 1454 c-33 -10 -59 -28 -92 -65 -65 -72 -76 -117 -76 -311 l0
-158 375 0 375 0 0 120 0 120 -265 0 c-181 0 -265 3 -265 11 0 6 5 19 10 30
10 18 25 19 330 19 l320 0 0 125 0 125 -332 -1 c-259 0 -343 -4 -380 -15z"/>
<path d="M2948 1456 c-55 -20 -85 -42 -118 -88 -56 -77 -60 -109 -60 -473 0
-422 11 -473 118 -548 l47 -32 293 -3 292 -3 0 275 0 276 -240 0 -240 0 0
-120 0 -120 94 0 c101 0 124 -10 111 -50 -6 -20 -13 -20 -123 -18 l-116 3 -8
32 c-11 41 -6 604 5 621 6 9 96 12 393 12 l384 0 0 125 0 125 -397 0 c-306 -1
-407 -4 -435 -14z"/>
<path d="M4606 1448 c-20 -31 -496 -1408 -496 -1433 0 -13 17 -15 106 -13
l107 3 53 159 c51 152 72 202 62 143 l-5 -27 334 0 c315 0 335 1 328 18 -11
25 -179 497 -335 942 -39 113 -79 211 -88 218 -24 18 -50 15 -66 -10z m45
-948 c-75 -3 -140 -2 -144 1 -4 3 1 30 12 60 11 30 41 121 66 203 25 82 49
154 52 160 4 5 39 -87 78 -204 l72 -215 -136 -5z"/>
<path d="M1542 683 c3 -170 4 -180 30 -234 31 -62 55 -87 113 -118 38 -20 53
-21 387 -21 l348 0 0 120 0 120 -314 0 c-273 0 -317 2 -330 16 -9 8 -16 24
-16 35 0 18 10 19 265 19 l265 0 0 120 0 120 -376 0 -376 0 4 -177z"/>
</g>
</svg>
