
<svg version="1.0" xmlns="http://www.w3.org/2000/svg"
fill='currentColor' viewBox="0 0 340.000000 300.000000"
 preserveAspectRatio="xMidYMid meet">

<g transform="translate(0.000000,300.000000) scale(0.100000,-0.100000)"
 stroke="none">
<path d="M1172 2989 c-93 -14 -279 -64 -379 -102 l-88 -34 -161 -559 c-89
-307 -160 -560 -159 -562 2 -2 45 12 97 31 96 37 228 75 333 98 94 21 323 16
415 -9 123 -33 233 -79 325 -138 49 -30 89 -53 90 -52 2 2 74 248 160 548 87
300 160 550 162 556 8 22 -206 144 -324 185 -130 45 -317 60 -471 38z"/>
<path d="M1977 2097 c-86 -304 -157 -558 -157 -563 0 -12 154 -104 242 -143
141 -64 205 -76 403 -75 168 0 188 3 295 31 145 39 308 101 319 122 15 28 323
1102 318 1108 -3 2 -48 -12 -101 -31 -159 -60 -324 -96 -468 -103 -232 -11
-395 32 -601 159 -43 26 -82 48 -86 48 -4 0 -78 -249 -164 -553z"/>
<path d="M740 1654 c-100 -19 -286 -74 -362 -107 l-54 -24 -72 -249 c-159
-550 -249 -869 -246 -872 1 -2 45 12 98 32 52 19 139 46 193 60 351 88 590 53
893 -133 36 -22 68 -37 71 -33 3 4 77 252 164 552 87 300 160 550 162 557 12
30 -244 165 -384 204 -105 29 -340 35 -463 13z"/>
<path d="M1752 1306 c-5 -17 -78 -268 -162 -559 -148 -510 -153 -528 -134
-542 110 -81 293 -163 432 -192 113 -23 342 -13 477 20 92 24 321 99 332 110
8 9 324 1109 320 1114 -3 2 -47 -11 -99 -30 -203 -77 -408 -113 -578 -104
-175 10 -316 56 -492 162 l-88 53 -8 -32z"/>
</g>
</svg>
