
<svg version="1.0" xmlns="http://www.w3.org/2000/svg" fill="currentColor"
  viewBox="0 0 744.000000 746.000000"
 preserveAspectRatio="xMidYMid meet">

<g transform="translate(0.000000,746.000000) scale(0.100000,-0.100000)"
 stroke="none">
<path d="M3450 7453 c-431 -21 -866 -136 -1329 -352 -190 -89 -263 -130 -258
-145 2 -7 61 -11 188 -12 263 -2 387 -24 699 -126 280 -91 517 -191 853 -359
l118 -59 72 31 c40 17 158 72 262 121 423 200 740 309 1081 369 95 17 159 21
314 21 l195 -1 -55 35 c-280 178 -905 398 -1270 448 -224 31 -582 43 -870 29z"/>
<path d="M1161 6404 c-19 -8 -77 -56 -129 -107 -400 -390 -750 -1029 -906
-1652 -50 -201 -113 -630 -123 -840 -6 -142 4 -272 43 -540 94 -642 272 -1119
599 -1610 139 -207 144 -212 113 -103 -18 64 -20 91 -15 223 13 352 134 728
414 1288 202 406 419 775 728 1242 231 348 414 600 651 897 145 181 174 223
162 232 -8 6 -99 88 -202 181 -475 429 -757 631 -1020 734 -179 70 -252 83
-315 55z"/>
<path d="M6139 6400 c-87 -25 -255 -98 -349 -150 -167 -95 -417 -279 -620
-459 -165 -146 -400 -364 -400 -371 0 -4 57 -79 127 -166 338 -425 631 -842
925 -1319 274 -444 535 -932 683 -1280 171 -399 257 -836 211 -1074 -8 -47
-14 -86 -12 -88 22 -23 320 472 423 702 131 292 259 725 295 1000 9 70 13 233
13 535 0 496 -8 587 -75 860 -161 652 -478 1249 -889 1674 -160 164 -190 176
-332 136z"/>
<path d="M3664 4402 c-226 -147 -812 -697 -1284 -1207 -444 -479 -847 -1035
-1034 -1425 -116 -242 -162 -415 -154 -581 8 -196 89 -295 424 -522 506 -343
1044 -551 1635 -632 163 -22 532 -31 725 -16 570 44 953 148 1434 391 446 226
774 469 848 628 92 200 -22 579 -318 1060 -169 274 -435 629 -665 887 -317
355 -919 958 -1245 1245 -140 124 -257 210 -284 210 -13 0 -49 -17 -82 -38z"/>
</g>
</svg>
