<svg width="215" height="33" viewBox="0 0 215 33" fill="none" xmlns="http://www.w3.org/2000/svg">
<path d="M37 22L46.5081 12.8752M46.5081 12.8752L55.7399 4.01559M46.5081 12.8752L37.2601 4M46.5081 12.8752L56 21.9844" stroke="#40BCF4" stroke-width="2" stroke-linecap="round" stroke-dasharray="10.75 21.51 32.26 43.01"/>
<path d="M28.2939 5.39912L37.0663 21.6634C37.3509 22.1912 36.9687 22.8316 36.3691 22.8316H18.8244C18.2248 22.8316 17.8426 22.1912 18.1272 21.6634L26.8996 5.39912C27.1988 4.84434 27.9947 4.84433 28.2939 5.39912Z" stroke="#00E054" stroke-width="2"/>
<path d="M20 14C20 18.9251 15.7932 23 10.5 23C5.20676 23 1 18.9251 1 14C1 9.07485 5.20676 5 10.5 5C15.7932 5 20 9.07485 20 14Z" stroke="#FF6B00" stroke-width="2"/>
<path d="M70.681 17.9211V24H65.5197V3.44086H73.6631C79.3978 3.44086 82.0072 6.2509 82.0072 10.638C82.0072 15.1685 79.4265 17.9498 73.7491 17.9211H70.681ZM70.681 7.85663V13.4767H73.6057C75.5556 13.4767 76.7599 12.5305 76.7599 10.638C76.7599 8.86021 75.6416 7.85663 73.5771 7.85663H70.681ZM84.2236 24V1.92115H89.4996V24H84.2236ZM102.641 21.2186C101.694 23.1111 99.9167 24.4301 96.7912 24.4301C93.1783 24.4301 91.4292 22.7097 91.4292 19.957C91.4292 17.9211 92.2608 16.6595 93.6084 15.828C94.0672 15.5699 94.4973 15.3118 94.9561 15.1685C95.8737 14.8244 97.0206 14.595 98.8271 14.3369C101.35 13.9928 102.383 13.7348 102.383 12.6452C102.383 11.6703 101.838 11.0394 100.031 11.0394C98.2249 11.0394 97.336 11.8423 97.25 13.448H91.9453C92.2034 9.57706 94.8127 7.02509 100.031 7.02509C101.866 7.02509 103.329 7.28315 104.418 7.82796C106.655 8.86021 107.515 10.81 107.515 13.3907V24H103.214L102.641 21.2186ZM98.9131 20.6165C99.6013 20.6165 100.203 20.4731 100.748 20.129C101.78 19.4695 102.411 18.4086 102.411 17.319V16.3154C101.924 16.6882 101.178 16.8889 100.175 17.0896C98.741 17.3477 98.2249 17.491 97.6801 17.8351C97.2213 18.1792 96.9919 18.6093 96.9919 19.1541C96.9919 20.1004 97.6514 20.6165 98.9131 20.6165ZM108.789 30.3082V25.9211H110.882C111.57 25.9211 112.058 25.8638 112.488 25.7491C113.291 25.5197 113.721 24.9749 114.151 23.8566L114.38 23.2545L107.957 7.36917H113.377L116.961 17.1756L120.431 7.36917H125.707L118.853 24.8889C117.936 27.1828 117.19 28.5591 116.158 29.3333C115.069 30.1075 113.664 30.3082 111.37 30.3082H108.789ZM136.707 24.4301C134.183 24.4301 132.549 23.1685 131.746 21.2186L131.345 24H126.786V1.92115H131.947V10.0358C132.836 8.11469 134.47 7.02509 136.821 7.02509C138.083 7.02509 139.201 7.3405 140.148 7.91398C142.097 9.11828 143.302 11.4695 143.302 15.2258V15.7419C143.302 21.4194 140.807 24.4301 136.707 24.4301ZM135.015 19.871C136.936 19.871 138.112 18.638 138.112 15.7133V15.3118C138.112 12.6738 136.85 11.3548 135.044 11.3548C133.151 11.3548 131.861 12.7885 131.861 15.2545V15.6272C131.861 18.552 133.123 19.871 135.015 19.871ZM153.569 24.4301C148.149 24.4301 145.196 21.6487 145.196 16.086V15.5699C145.196 13.6774 145.569 12.1004 146.286 10.8387C147.719 8.31541 150.329 7.02509 153.597 7.02509C155.289 7.02509 156.723 7.3405 157.985 8C160.508 9.319 161.97 11.8423 161.97 15.5699V16.086C161.97 17.9211 161.626 19.4695 160.938 20.7025C159.504 23.1971 156.981 24.4301 153.569 24.4301ZM153.597 19.9283C155.519 19.9283 156.78 18.638 156.78 16.0287V15.5699C156.78 12.8459 155.662 11.4409 153.626 11.4409C151.676 11.4409 150.386 12.7599 150.386 15.5699V16.0287C150.386 18.6093 151.676 19.9283 153.597 19.9283ZM170.511 19.2975L167.471 24H161.335L167.471 15.3405L161.908 7.36917H167.815L170.539 11.5842L173.263 7.36917H179.141L173.607 15.2832L179.514 24H173.55L170.511 19.2975ZM190.382 21.1039C189.551 23.0538 187.916 24.3154 185.336 24.3154C181.293 24.3154 178.798 21.448 178.798 15.7133V15.2258C178.798 13.3333 179.085 11.8423 179.658 10.6093C180.777 8.20072 182.841 7.05376 185.364 7.05376C187.773 7.05376 189.35 8.05735 190.182 9.7491V1.92115H195.314V24H190.87L190.382 21.1039ZM187.056 19.871C188.977 19.871 190.239 18.4946 190.239 15.6846V15.3118C190.239 12.7885 189.035 11.3548 187.142 11.3548C185.192 11.3548 184.045 12.7025 184.045 15.3118V15.6846C184.045 18.6953 185.278 19.871 187.056 19.871Z" fill="#F9F9F9"/>
</svg>
