<svg width="253" height="79" viewBox="0 0 253 79" fill="none" xmlns="http://www.w3.org/2000/svg">
<g filter="url(#filter0_dd_8_89)">
<path d="M76 44L84.0068 35.3821M84.0068 35.3821L91.781 27.0147M84.0068 35.3821L76.219 27M84.0068 35.3821L92 43.9853" stroke="#0CB2FD" stroke-width="1.4" stroke-linecap="round" stroke-dasharray="10.75 21.51 32.26 43.01"/>
</g>
<g filter="url(#filter1_dd_8_89)">
<path d="M67.1457 26.2784L76.3144 43.8604C76.7629 44.7207 76.1388 45.75 75.1687 45.75H56.8313C55.8612 45.75 55.2371 44.7207 55.6857 43.8604L64.8543 26.2784C65.3373 25.3521 66.6627 25.3521 67.1457 26.2784Z" stroke="#5DFF11"/>
</g>
<g filter="url(#filter2_dd_8_89)">
<circle cx="49" cy="37" r="9.5" stroke="#FF5D39"/>
</g>
<g filter="url(#filter3_dd_8_89)">
<path d="M109.681 39.9211V46H104.52V25.4409H112.663C118.398 25.4409 121.007 28.2509 121.007 32.638C121.007 37.1685 118.427 39.9498 112.749 39.9211H109.681ZM109.681 29.8566V35.4767H112.606C114.556 35.4767 115.76 34.5305 115.76 32.638C115.76 30.8602 114.642 29.8566 112.577 29.8566H109.681ZM123.224 46V23.9211H128.5V46H123.224ZM141.641 43.2186C140.694 45.1111 138.917 46.4301 135.791 46.4301C132.178 46.4301 130.429 44.7097 130.429 41.957C130.429 39.9211 131.261 38.6595 132.608 37.828C133.067 37.5699 133.497 37.3118 133.956 37.1685C134.874 36.8244 136.021 36.595 137.827 36.3369C140.35 35.9928 141.383 35.7348 141.383 34.6452C141.383 33.6703 140.838 33.0394 139.031 33.0394C137.225 33.0394 136.336 33.8423 136.25 35.448H130.945C131.203 31.5771 133.813 29.0251 139.031 29.0251C140.866 29.0251 142.329 29.2832 143.418 29.828C145.655 30.8602 146.515 32.81 146.515 35.3907V46H142.214L141.641 43.2186ZM137.913 42.6165C138.601 42.6165 139.203 42.4731 139.748 42.129C140.78 41.4695 141.411 40.4086 141.411 39.319V38.3154C140.924 38.6882 140.178 38.8889 139.175 39.0896C137.741 39.3477 137.225 39.491 136.68 39.8351C136.221 40.1792 135.992 40.6093 135.992 41.1541C135.992 42.1004 136.651 42.6165 137.913 42.6165ZM147.789 52.3082V47.9211H149.882C150.57 47.9211 151.058 47.8638 151.488 47.7491C152.291 47.5197 152.721 46.9749 153.151 45.8566L153.38 45.2545L146.957 29.3692H152.377L155.961 39.1756L159.431 29.3692H164.707L157.853 46.8889C156.936 49.1828 156.19 50.5591 155.158 51.3333C154.069 52.1075 152.664 52.3082 150.37 52.3082H147.789ZM175.707 46.4301C173.183 46.4301 171.549 45.1685 170.746 43.2186L170.345 46H165.786V23.9211H170.947V32.0358C171.836 30.1147 173.47 29.0251 175.821 29.0251C177.083 29.0251 178.201 29.3405 179.148 29.914C181.097 31.1183 182.302 33.4695 182.302 37.2258V37.7419C182.302 43.4194 179.807 46.4301 175.707 46.4301ZM174.015 41.871C175.936 41.871 177.112 40.638 177.112 37.7133V37.3118C177.112 34.6738 175.85 33.3548 174.044 33.3548C172.151 33.3548 170.861 34.7885 170.861 37.2545V37.6272C170.861 40.552 172.123 41.871 174.015 41.871ZM192.569 46.4301C187.149 46.4301 184.196 43.6487 184.196 38.086V37.5699C184.196 35.6774 184.569 34.1004 185.286 32.8387C186.719 30.3154 189.329 29.0251 192.597 29.0251C194.289 29.0251 195.723 29.3405 196.985 30C199.508 31.319 200.97 33.8423 200.97 37.5699V38.086C200.97 39.9211 200.626 41.4695 199.938 42.7025C198.504 45.1971 195.981 46.4301 192.569 46.4301ZM192.597 41.9283C194.519 41.9283 195.78 40.638 195.78 38.0287V37.5699C195.78 34.8459 194.662 33.4409 192.626 33.4409C190.676 33.4409 189.386 34.7599 189.386 37.5699V38.0287C189.386 40.6093 190.676 41.9283 192.597 41.9283ZM209.511 41.2975L206.471 46H200.335L206.471 37.3405L200.908 29.3692H206.815L209.539 33.5842L212.263 29.3692H218.141L212.607 37.2832L218.514 46H212.55L209.511 41.2975ZM229.382 43.1039C228.551 45.0538 226.916 46.3154 224.336 46.3154C220.293 46.3154 217.798 43.448 217.798 37.7133V37.2258C217.798 35.3333 218.085 33.8423 218.658 32.6093C219.777 30.2007 221.841 29.0538 224.364 29.0538C226.773 29.0538 228.35 30.0573 229.182 31.7491V23.9211H234.314V46H229.87L229.382 43.1039ZM226.056 41.871C227.977 41.871 229.239 40.4946 229.239 37.6846V37.3118C229.239 34.7885 228.035 33.3548 226.142 33.3548C224.192 33.3548 223.045 34.7025 223.045 37.3118V37.6846C223.045 40.6953 224.278 41.871 226.056 41.871Z" fill="#F3F5F6" fill-opacity="0.956863"/>
</g>
<defs>
<filter id="filter0_dd_8_89" x="57.3" y="16.3" width="53.4" height="54.4" filterUnits="userSpaceOnUse" color-interpolation-filters="sRGB">
<feFlood flood-opacity="0" result="BackgroundImageFix"/>
<feColorMatrix in="SourceAlpha" type="matrix" values="0 0 0 0 0 0 0 0 0 0 0 0 0 0 0 0 0 0 127 0" result="hardAlpha"/>
<feOffset dy="4"/>
<feGaussianBlur stdDeviation="2"/>
<feColorMatrix type="matrix" values="0 0 0 0 0 0 0 0 0 0 0 0 0 0 0 0 0 0 0.3 0"/>
<feBlend mode="normal" in2="BackgroundImageFix" result="effect1_dropShadow_8_89"/>
<feColorMatrix in="SourceAlpha" type="matrix" values="0 0 0 0 0 0 0 0 0 0 0 0 0 0 0 0 0 0 127 0" result="hardAlpha"/>
<feMorphology radius="6" operator="dilate" in="SourceAlpha" result="effect2_dropShadow_8_89"/>
<feOffset dy="8"/>
<feGaussianBlur stdDeviation="6"/>
<feColorMatrix type="matrix" values="0 0 0 0 0 0 0 0 0 0 0 0 0 0 0 0 0 0 0.15 0"/>
<feBlend mode="normal" in2="effect1_dropShadow_8_89" result="effect2_dropShadow_8_89"/>
<feBlend mode="normal" in="SourceGraphic" in2="effect2_dropShadow_8_89" result="shape"/>
</filter>
<filter id="filter1_dd_8_89" x="37.0368" y="15.0837" width="57.9264" height="57.1663" filterUnits="userSpaceOnUse" color-interpolation-filters="sRGB">
<feFlood flood-opacity="0" result="BackgroundImageFix"/>
<feColorMatrix in="SourceAlpha" type="matrix" values="0 0 0 0 0 0 0 0 0 0 0 0 0 0 0 0 0 0 127 0" result="hardAlpha"/>
<feOffset dy="4"/>
<feGaussianBlur stdDeviation="2"/>
<feColorMatrix type="matrix" values="0 0 0 0 0 0 0 0 0 0 0 0 0 0 0 0 0 0 0.3 0"/>
<feBlend mode="normal" in2="BackgroundImageFix" result="effect1_dropShadow_8_89"/>
<feColorMatrix in="SourceAlpha" type="matrix" values="0 0 0 0 0 0 0 0 0 0 0 0 0 0 0 0 0 0 127 0" result="hardAlpha"/>
<feMorphology radius="6" operator="dilate" in="SourceAlpha" result="effect2_dropShadow_8_89"/>
<feOffset dy="8"/>
<feGaussianBlur stdDeviation="6"/>
<feColorMatrix type="matrix" values="0 0 0 0 0 0 0 0 0 0 0 0 0 0 0 0 0 0 0.15 0"/>
<feBlend mode="normal" in2="effect1_dropShadow_8_89" result="effect2_dropShadow_8_89"/>
<feBlend mode="normal" in="SourceGraphic" in2="effect2_dropShadow_8_89" result="shape"/>
</filter>
<filter id="filter2_dd_8_89" x="21" y="17" width="56" height="56" filterUnits="userSpaceOnUse" color-interpolation-filters="sRGB">
<feFlood flood-opacity="0" result="BackgroundImageFix"/>
<feColorMatrix in="SourceAlpha" type="matrix" values="0 0 0 0 0 0 0 0 0 0 0 0 0 0 0 0 0 0 127 0" result="hardAlpha"/>
<feOffset dy="4"/>
<feGaussianBlur stdDeviation="2"/>
<feColorMatrix type="matrix" values="0 0 0 0 0 0 0 0 0 0 0 0 0 0 0 0 0 0 0.3 0"/>
<feBlend mode="normal" in2="BackgroundImageFix" result="effect1_dropShadow_8_89"/>
<feColorMatrix in="SourceAlpha" type="matrix" values="0 0 0 0 0 0 0 0 0 0 0 0 0 0 0 0 0 0 127 0" result="hardAlpha"/>
<feMorphology radius="6" operator="dilate" in="SourceAlpha" result="effect2_dropShadow_8_89"/>
<feOffset dy="8"/>
<feGaussianBlur stdDeviation="6"/>
<feColorMatrix type="matrix" values="0 0 0 0 0 0 0 0 0 0 0 0 0 0 0 0 0 0 0.15 0"/>
<feBlend mode="normal" in2="effect1_dropShadow_8_89" result="effect2_dropShadow_8_89"/>
<feBlend mode="normal" in="SourceGraphic" in2="effect2_dropShadow_8_89" result="shape"/>
</filter>
<filter id="filter3_dd_8_89" x="86.5197" y="13.9211" width="165.795" height="64.3871" filterUnits="userSpaceOnUse" color-interpolation-filters="sRGB">
<feFlood flood-opacity="0" result="BackgroundImageFix"/>
<feColorMatrix in="SourceAlpha" type="matrix" values="0 0 0 0 0 0 0 0 0 0 0 0 0 0 0 0 0 0 127 0" result="hardAlpha"/>
<feOffset dy="4"/>
<feGaussianBlur stdDeviation="2"/>
<feColorMatrix type="matrix" values="0 0 0 0 0 0 0 0 0 0 0 0 0 0 0 0 0 0 0.3 0"/>
<feBlend mode="normal" in2="BackgroundImageFix" result="effect1_dropShadow_8_89"/>
<feColorMatrix in="SourceAlpha" type="matrix" values="0 0 0 0 0 0 0 0 0 0 0 0 0 0 0 0 0 0 127 0" result="hardAlpha"/>
<feMorphology radius="6" operator="dilate" in="SourceAlpha" result="effect2_dropShadow_8_89"/>
<feOffset dy="8"/>
<feGaussianBlur stdDeviation="6"/>
<feColorMatrix type="matrix" values="0 0 0 0 0 0 0 0 0 0 0 0 0 0 0 0 0 0 0.15 0"/>
<feBlend mode="normal" in2="effect1_dropShadow_8_89" result="effect2_dropShadow_8_89"/>
<feBlend mode="normal" in="SourceGraphic" in2="effect2_dropShadow_8_89" result="shape"/>
</filter>
</defs>
</svg>
